<?xml version="1.0" encoding="UTF-8" standalone="no"?>
<svg
   xmlns:dc="http://purl.org/dc/elements/1.1/"
   xmlns:cc="http://creativecommons.org/ns#"
   xmlns:rdf="http://www.w3.org/1999/02/22-rdf-syntax-ns#"
   xmlns:svg="http://www.w3.org/2000/svg"
   xmlns="http://www.w3.org/2000/svg"
   viewBox="0 0 1511.84 720"
   height="720"
   width="1511.84"
   xml:space="preserve"
   id="svg2"
   version="1.1"><metadata
     id="metadata8"><rdf:RDF><cc:Work
         rdf:about=""><dc:format>image/svg+xml</dc:format><dc:type
           rdf:resource="http://purl.org/dc/dcmitype/StillImage" /></cc:Work></rdf:RDF></metadata><defs
     id="defs6"><clipPath
       id="clipPath18"
       clipPathUnits="userSpaceOnUse"><path
         style="clip-rule:evenodd"
         id="path16"
         d="M 0,1.2207e-4 H 1133.88 V 540.00012 H 0 Z" /></clipPath><clipPath
       id="clipPath36"
       clipPathUnits="userSpaceOnUse"><path
         style="clip-rule:evenodd"
         id="path34"
         d="M -7.629e-6,540 H 1133.88 V 1.2207e-4 H -7.629e-6" /></clipPath><clipPath
       id="clipPath46"
       clipPathUnits="userSpaceOnUse"><path
         style="clip-rule:evenodd"
         id="path44"
         d="M 9.1553e-5,540 H 1133.88 V 2.4414e-4 L 1.2207e-4,1.8311e-4" /></clipPath><clipPath
       id="clipPath56"
       clipPathUnits="userSpaceOnUse"><path
         style="clip-rule:evenodd"
         id="path54"
         d="M -7.629e-6,540 H 1133.88 V 6.1035e-5 H -7.629e-6" /></clipPath><clipPath
       id="clipPath66"
       clipPathUnits="userSpaceOnUse"><path
         style="clip-rule:evenodd"
         id="path64"
         d="M -9.1553e-5,540 H 1133.88 V 1.2207e-4 H -6.1035e-5" /></clipPath></defs><g
     transform="matrix(1.3333333,0,0,-1.3333333,0,720)"
     id="g10"><g
       id="g12"><g
         clip-path="url(#clipPath18)"
         id="g14"><path
           id="path20"
           style="fill:#ffffff;fill-opacity:1;fill-rule:evenodd;stroke:none"
           d="M 0,6.1035e-5 H 1133.88 V 540.00006 H 0 Z" /></g></g><path
       id="path22"
       style="fill:#ffffff;fill-opacity:1;fill-rule:evenodd;stroke:none"
       d="M 182.28,52.68 H 324.24 V 101.4 H 182.28 Z" /><path
       id="path24"
       style="fill:none;stroke:#000000;stroke-width:12;stroke-linecap:butt;stroke-linejoin:miter;stroke-miterlimit:10;stroke-dasharray:none;stroke-opacity:1"
       d="M 182.28,52.68 H 324.24 V 101.4 H 182.28 Z" /><path
       id="path26"
       style="fill:#4a60a8;fill-opacity:1;fill-rule:evenodd;stroke:none"
       d="m 361.92,155.4 h 42.96 v 204.48 h -42.96 z" /><path
       id="path28"
       style="fill:#4a60a8;fill-opacity:1;fill-rule:evenodd;stroke:none"
       d="m 101.76,149.4 h 42.96 v 210.48 h -42.96 z" /><g
       id="g30"><g
         clip-path="url(#clipPath36)"
         id="g32"><path
           id="path38"
           style="fill:#4472c4;fill-opacity:1;fill-rule:evenodd;stroke:none"
           d="M 251.88,284.88 101.76,353.7 v 48.78 l 150.12,-68.82 z" /></g></g><g
       id="g40"><g
         clip-path="url(#clipPath46)"
         id="g42"><path
           id="path48"
           style="fill:#595959;fill-opacity:1;fill-rule:evenodd;stroke:none"
           d="m 253.32,465.24 v 0 l 151.56,-63.76 v -46.16 l -151.56,63.76 v 0 L 101.76,355.32 v 46.16 z" /></g></g><g
       id="g50"><g
         clip-path="url(#clipPath56)"
         id="g52"><path
           id="path58"
           style="fill:#4a60a8;fill-opacity:1;fill-rule:evenodd;stroke:none"
           d="m 253.32,283.8 -151.56,69.75 v 47.73 l 151.56,-69.75 z" /></g></g><g
       id="g60"><g
         clip-path="url(#clipPath66)"
         id="g62"><path
           id="path68"
           style="fill:#4a60a8;fill-opacity:1;fill-rule:evenodd;stroke:none"
           d="m 253.32,283.8 151.56,69.75 v 47.73 L 253.32,331.53 Z" /></g></g><path
       id="path70"
       style="fill:#595959;fill-opacity:1;fill-rule:evenodd;stroke:none"
       d="M 231.84,174.6 H 274.8 V 449.28 H 231.84 Z" /><path
       id="path72"
       style="fill:#ffffff;fill-opacity:1;fill-rule:evenodd;stroke:none"
       d="M 442.8,274.68 C 442.8,169.3 414.56,83.843 251.97,83.76 89.376,83.677 61.005,169 60.84,274.38 l 190.98,0.3 z" /><path
       id="path74"
       style="fill:none;stroke:#000000;stroke-width:12;stroke-linecap:butt;stroke-linejoin:miter;stroke-miterlimit:10;stroke-dasharray:none;stroke-opacity:1"
       d="M 442.8,274.68 C 442.8,169.3 414.56,83.843 251.97,83.76 89.376,83.677 61.005,169 60.84,274.38 l 190.98,0.3 z" /><path
       id="path76"
       style="fill:#000000;fill-opacity:1;fill-rule:evenodd;stroke:none"
       d="m 620.17,398.28 h 15.59 V 256.8 h -15.59 v 68.92 h -23.06 v -66.43 h -15.59 v 138.16 h 15.59 v -56.16 h 23.06 z" /><path
       id="path78"
       style="fill:#000000;fill-opacity:1;fill-rule:evenodd;stroke:none"
       d="m 935.85,398.28 h 16.59 V 256.8 h -16.59 v 68.26 h -27.21 v 15.9 h 27.21 z" /><path
       id="path80"
       style="fill:#000000;fill-opacity:1;fill-rule:evenodd;stroke:none"
       d="m 1087.69,398.28 h 16.43 V 256.8 h -16.43 v 75.71 h -52.45 v 15.57 h 52.45 z" /><path
       id="path82"
       style="fill:#000000;fill-opacity:1;fill-rule:evenodd;stroke:none"
       d="m 978.24,393.96 h 16.74 V 280.45 h 37.47 c 6.85,0 13.62,0.6 20.3,1.82 6.69,1.21 12.13,2.82 16.33,4.8 v -15.08 c -4.2,-2.09 -9.67,-3.75 -16.41,-4.97 -6.74,-1.21 -13.59,-1.82 -20.56,-1.82 h -53.87 z" /><path
       id="path84"
       style="fill:#000000;fill-opacity:1;fill-rule:evenodd;stroke:none"
       d="m 504,393.12 h 60.6 V 265.2 H 504 Z m 15.56,-14.91 v -98.1 h 29.64 v 98.1 z" /><path
       id="path86"
       style="fill:#000000;fill-opacity:1;fill-rule:evenodd;stroke:none"
       d="m 668.64,393.12 h 122.9 V 377.87 H 685.39 V 324.85 H 793.2 V 309.6 H 668.64 Z" /><path
       id="path88"
       style="fill:#000000;fill-opacity:1;fill-rule:evenodd;stroke:none"
       d="m 826.32,393.12 h 72.7 V 322.2 h -56.14 v -41.92 h 37.92 c 6.74,0 13.44,0.61 20.12,1.82 6.68,1.22 12.17,2.82 16.48,4.81 v -14.92 c -4.2,-2.1 -9.72,-3.75 -16.56,-4.97 -6.84,-1.21 -13.8,-1.82 -20.87,-1.82 h -53.32 v 72.08 h 56.14 v 40.76 h -56.47 z" /><path
       id="path90"
       style="fill:#000000;fill-opacity:1;fill-rule:evenodd;stroke:none"
       d="M 659.4,263.52 H 800.76 V 279 H 659.4 Z" /><path
       id="path92"
       style="fill:#000000;fill-opacity:1;fill-rule:evenodd;stroke:none"
       d="M 875.17,222.48 H 904 v -12.42 h 49.56 V 184.73 H 904.5 c -0.33,-1.44 -1.05,-3.48 -2.15,-6.13 l 55.85,-16.06 -8.45,-24.18 -63.98,19.71 c -7.73,-6.08 -17.04,-10.82 -27.92,-14.25 -10.89,-3.42 -22.52,-5.24 -34.89,-5.46 v 25.67 c 10.83,0.33 20.72,2.34 29.67,6.04 8.95,3.7 15.52,8.58 19.72,14.66 h -46.41 v 25.33 h 49.23 z" /><path
       id="path94"
       style="fill:#000000;fill-opacity:1;fill-rule:evenodd;stroke:none"
       d="m 608.22,219 h 28.02 v -77.88 h -28.02 v 32.15 h -18.9 v 20.87 h -26.69 c -0.33,-3.31 -0.94,-6.24 -1.83,-8.78 l 37.81,-21.54 -13.43,-20.55 -35.81,21.38 c -5.86,-6.74 -12.94,-12.18 -21.23,-16.32 -8.29,-4.14 -17.29,-6.33 -27.02,-6.55 v 24.53 c 5.86,0.33 11.11,1.82 15.75,4.47 4.64,2.65 8.46,6.05 11.44,10.19 2.98,4.14 4.97,8.54 5.97,13.17 h -31.17 v 23.2 h 90.19 v -20.21 h 14.92 z" /><path
       id="path96"
       style="fill:#000000;fill-opacity:1;fill-rule:evenodd;stroke:none"
       d="m 773.16,77.52 h 26.16 V 219 h -26.16 z" /><path
       id="path98"
       style="fill:#000000;fill-opacity:1;fill-rule:evenodd;stroke:none"
       d="m 737.45,218.4 h 25.87 V 80.04 h -25.87 v 60.48 H 725.18 V 84.182 H 660.84 V 215.75 h 64.34 v -48.72 h 12.27 z m -50.74,-28 v -80.87 h 12.6 v 80.87 z" /><path
       id="path100"
       style="fill:#000000;fill-opacity:1;fill-rule:evenodd;stroke:none"
       d="m 509.64,136.2 h 126.6 V 77.52 h -126.6 z m 28,-22.88 V 100.4 h 70.6 v 12.92 z" /><path
       id="path102"
       style="fill:#000000;fill-opacity:1;fill-rule:evenodd;stroke:none"
       d="m 818.16,130.08 h 143.16 v -25.72 h -57.33 v -30.2 h -28.5 v 30.2 h -57.33 z" /></g></svg>