<?xml version="1.0" encoding="UTF-8" standalone="no"?>
<svg
   xmlns:dc="http://purl.org/dc/elements/1.1/"
   xmlns:cc="http://creativecommons.org/ns#"
   xmlns:rdf="http://www.w3.org/1999/02/22-rdf-syntax-ns#"
   xmlns:svg="http://www.w3.org/2000/svg"
   xmlns="http://www.w3.org/2000/svg"
   viewBox="0 0 1247.2 1247.2"
   height="1247.2"
   width="1247.2"
   xml:space="preserve"
   id="svg2"
   version="1.1"><metadata
     id="metadata8"><rdf:RDF><cc:Work
         rdf:about=""><dc:format>image/svg+xml</dc:format><dc:type
           rdf:resource="http://purl.org/dc/dcmitype/StillImage" /></cc:Work></rdf:RDF></metadata><defs
     id="defs6"><clipPath
       id="clipPath18"
       clipPathUnits="userSpaceOnUse"><path
         style="clip-rule:evenodd"
         id="path16"
         d="M 0,1.8311e-4 H 935.4 V 935.40018 H 0 Z" /></clipPath></defs><g
     transform="matrix(1.3333333,0,0,-1.3333333,0,1247.2)"
     id="g10"><g
       id="g12"><g
         clip-path="url(#clipPath18)"
         id="g14"><path
           id="path20"
           style="fill:#ffffff;fill-opacity:1;fill-rule:evenodd;stroke:none"
           d="M 0,1.2207e-4 H 935.4 V 935.40012 H 0 Z" /></g></g><path
       id="path22"
       style="fill:#000000;fill-opacity:1;fill-rule:evenodd;stroke:none"
       d="m 467.64,671.49 c -52.21,0 -94.53,-42.32 -94.53,-94.53 0,-52.21 42.32,-94.53 94.53,-94.53 52.21,0 94.53,42.32 94.53,94.53 0,52.21 -42.32,94.53 -94.53,94.53 z m 0,147.87 c 133.87,0 242.4,-108.53 242.4,-242.4 0,-33.47 -6.78,-65.35 -19.05,-94.35 l -0.69,-1.44 h 0.14 L 685.19,469.34 511.15,149.3 c -24.03,-44.19 -62.99,-44.19 -87.02,0 l -174.04,320.04 -5.25,11.83 h 0.14 l -0.69,1.44 c -12.27,29 -19.05,60.88 -19.05,94.35 0,133.87 108.53,242.4 242.4,242.4 z" /></g></svg>